# xmcd
#
# Track frame offsets: 
#        188
#        9910
#        31213
#        42320
#        59038
#        74863
#        89938
#        104938
#        118288
#        131638
#        142588
#        155113
#        166438
#        180275
#
# Disc length: 2600 seconds
#
# Revision: 3
# Processed by: cddbd v1.5.2PL0 Copyright (c) Steve Scherf et al.
# Submitted via: ExactAudioCopy v0.99pb5
#
DISCID=d40a260e
DTITLE=Various Artist - Country Number Ones - Vol. 2 
DYEAR=1990
DGENRE=Country
TTITLE0=Waylon Jennings - Theme from The Dukes Of Hazzard (good ol' bo
TTITLE0=ys)
TTITLE1=Restless Heart - Bluest eyes in Texas
TTITLE2=Eddy Raven - I got Mexico
TTITLE3=Keith Whitley - When you say nothing at all
TTITLE4=Steve Wariner - All roads lead to you
TTITLE5=Sylvia - Nobody
TTITLE6=Alabama - Love in the first degree
TTITLE7=Dolly Parton - Here you come again
TTITLE8=Waylon Jennings - Amanda
TTITLE9=Charley Pride - She called me baby
TTITLE10=Gary Stewart - She's actin' single (I'm drinkin' doubles)
TTITLE11=Dave and Sugar - Golden tears
TTITLE12=Jim Ed Brown and Helen Cornelius - I don't want to have to marr
TTITLE12=y you
TTITLE13=Ronnie Milsap - (There's) no gettin' over me
EXTD=YEAR: 1990
EXTT0=
EXTT1=
EXTT2=
EXTT3=
EXTT4=
EXTT5=
EXTT6=
EXTT7=
EXTT8=
EXTT9=
EXTT10=
EXTT11=
EXTT12=
EXTT13=
PLAYORDER=
